<?xml version="1.0" encoding="utf-8"?>
<!-- Generator: Adobe Illustrator 22.0.1, SVG Export Plug-In . SVG Version: 6.00 Build 0)  -->
<svg version="1.1" id="Layer_1" xmlns="http://www.w3.org/2000/svg" xmlns:xlink="http://www.w3.org/1999/xlink" x="0px" y="0px"
	 viewBox="0 0 141.7 141.7" style="enable-background:new 0 0 141.7 141.7;" xml:space="preserve">
<g>
	<g>
		<path d="M24.7,59.9c-0.7-8.5,4.6-21.7,14.1-23.2c12.2-1.9,12,14.2,11.5,21.9c-0.1,1.5,1.2,2.3,2.5,2.5c8.4,1.1,16.8,1.5,25.3,1.3
			c2-0.1,3.5-2.8,1.8-4.3c-5.1-4.2-7.7-11.1-4-17.2c1.5-2.6,4.4-4.9,7.4-5.3c3.1-0.5,5.8,1.4,4,4.9c-0.9,1.8-3.4,2.9-5.1,3.7
			c-2.4,1.1-1,4.6,1.3,4.7c8.2,0.1,16.5,0.1,24.7,0.2c1.4,0,2.5-1.2,2.5-2.5c0.1-5.5,0-10.9-0.2-16.4c-0.8,0.8-1.7,1.7-2.5,2.5
			c4.5-0.3,8.9-0.6,13.4-0.8c-0.8-0.8-1.7-1.7-2.5-2.5c0.1,11.6-0.3,23.2-1.4,34.8c0.6-0.8,1.2-1.6,1.8-2.4
			c-6.4,0.9-12.8,1.5-19.2,1.9c-1.4,0.1-2.5,1.1-2.5,2.5c-0.1,8.1-0.2,16.1-0.2,24.2c0,2,2.1,3,3.8,2.2c4-1.9,10.4-7.8,15.1-4.9
			c2.2,1.3,3,4.3,2.9,6.7c-0.1,1.4-0.5,2.7-1.2,3.9c-2.4,2.4-4,2.5-4.9,0.3c-0.8-2.3-4.1-2.4-4.8,0c-1.9,6.2-0.6,13.5,5.2,17.2
			c5.7,3.6,12.5,2,16.6-3.1c4.5-5.5,5-13,3.7-19.7c-2-10.1-7.3-19.8-11.3-29.2c-0.4-1-1.2-1.9-2.4-1.8c-6.2,0.5-12.5,1.1-18.7,1.6
			c-3.3,0.3-10.9-0.6-12.8,2.7c-1,1.8-0.7,4.9-0.9,6.8c-0.2,3.3-0.4,6.5-0.6,9.8c-0.3,6.8-0.4,13.7-0.4,20.5c0,1.9,2.1,3.2,3.8,2.2
			c0.5-0.3-0.4,4.2-0.5,4.5c-0.1,1.2-0.1,2.3,0.1,3.5c0.5,2.9,1.9,5.2,4,7.2c0.6-1.4,1.2-2.8,1.8-4.3c-5,0.3-10,0.6-15,0.9
			c0.8,0.6,1.6,1.2,2.4,1.8c-1.2-8.5-0.6-17,0-25.4c0.5-7.2,1.8-15.6,0.3-22.8c-1.1-5.4-9.6-3.8-13.7-4.1
			c-8.6-0.5-17.1-0.9-25.7-1.3c0.8,0.8,1.7,1.7,2.5,2.5c-0.6-5.5-0.6-20.8-9.3-19.7c-8.6,1.1-8,16.1-7.8,22c0.8-0.8,1.7-1.7,2.5-2.5
			c-3.3,0.4-6.5,0.6-9.8,0.6c0.8,0.8,1.7,1.7,2.5,2.5c0-3.9,0-7.7,0-11.6c0-3.2-5-3.2-5,0c0,3.9,0,7.7,0,11.6c0,1.3,1.1,2.5,2.5,2.5
			c3.3,0,6.5-0.2,9.8-0.6c1.3-0.1,2.6-1,2.5-2.5c-0.1-2.6-0.1-5.2,0.1-7.8c0.1-1.1,0.5-7.3,1.8-8.2c3.4-2.1,3.5,3.2,3.8,4.8
			c0.6,2.9,1,5.8,1.3,8.7c0.2,1.4,1,2.4,2.5,2.5c5.9,0.2,11.9,0.5,17.8,0.8c5.7,0.3,12.8-0.4,18.2,1.3c-0.6-0.6-1.2-1.2-1.7-1.7
			c1.3,3.9,0.6,9.3,0.5,13.4c-0.2,4.1-0.5,8.1-0.7,12.2c-0.5,8-0.7,16,0.4,24c0.1,1,1.4,1.9,2.4,1.8c5-0.3,10-0.6,15-0.9
			c2.1-0.1,3.4-2.7,1.8-4.3c-2.9-2.8-2.8-5.6-1.8-9.2c0.5-1.8,0.8-3.4-0.1-5.1c-1.6-2.8-5.1-3.3-7.7-1.6c1.3,0.7,2.5,1.4,3.8,2.2
			c0-5.9,0.1-11.7,0.3-17.6c0.2-5.6-0.4-12.5,1.2-17.9c-0.6,0.6-1.2,1.2-1.7,1.7c4.3-1.5,10-1.1,14.5-1.5c4.7-0.4,9.4-0.8,14-1.2
			c-0.8-0.6-1.6-1.2-2.4-1.8c2.3,5.5,4.6,11,6.9,16.5c2.2,5.4,4.7,11,4.9,16.9c0.2,5.1-1.5,11.7-6.8,13.8c-7.8,3-11.4-6.3-9.5-12.4
			c-1.6,0-3.2,0-4.8,0c1.3,4,5.5,6.3,9.6,4.7c4.8-1.8,6.7-7.6,6.2-12.3c-0.4-4.5-3.1-8.8-7.7-10.1c-6.6-1.8-12.2,3.3-17.7,5.9
			c1.3,0.7,2.5,1.4,3.8,2.2c0.1-8.1,0.2-16.1,0.2-24.2c-0.8,0.8-1.7,1.7-2.5,2.5c6.9-0.4,13.7-1.2,20.5-2.1c1.1-0.2,1.7-1.4,1.8-2.4
			c1-11.6,1.5-23.2,1.4-34.8c0-1.3-1.1-2.6-2.5-2.5c-4.5,0.3-8.9,0.6-13.4,0.8c-1.3,0.1-2.6,1.1-2.5,2.5c0.2,5.5,0.2,10.9,0.2,16.4
			c0.8-0.8,1.7-1.7,2.5-2.5c-8.2-0.1-16.5-0.1-24.7-0.2c0.4,1.6,0.8,3.1,1.3,4.7c5.2-2.3,10.2-7.4,7.5-13.5
			c-2.3-5.1-8.8-5.2-13.2-3.2c-12.4,5.6-12.3,21.9-2.6,29.9c0.6-1.4,1.2-2.8,1.8-4.3c-8.5,0.3-16.9-0.2-25.3-1.3
			c0.8,0.8,1.7,1.7,2.5,2.5c0.8-10.8-1.1-28.3-16-27.1c-12.7,1-20.5,17-19.6,28.4C20,63.1,25,63.2,24.7,59.9L24.7,59.9z"/>
	</g>
</g>
</svg>
