<?xml version="1.0" encoding="utf-8"?>
<!-- Generator: Adobe Illustrator 22.0.1, SVG Export Plug-In . SVG Version: 6.00 Build 0)  -->
<svg version="1.1" id="Layer_1" xmlns="http://www.w3.org/2000/svg" xmlns:xlink="http://www.w3.org/1999/xlink" x="0px" y="0px"
	 viewBox="0 0 443.4 892.6" style="enable-background:new 0 0 443.4 892.6;" xml:space="preserve">
<style type="text/css">
	.st0{fill:none;}
</style>
<path id="Layer_2_1_" class="st0" d="M186.8,11.4c4.9,1.4,8.7,4.8,11.2,9.2c0.7,1.1,1.3,2.3,1.8,3.5c0.3,0.6,0.6,1.3,0.8,1.9
	c0.2,0.4,0.4,0.7,0.2,1c-0.1,0.2-0.4,0.4-0.6,0.5c-2.3,2.1-4.5,4.1-6.8,6.2c-1.3-2.7-2.6-5.4-4-8.1c-0.1-0.2-0.3-0.8-0.4-0.8
	c-0.2-0.1-0.8,0.2-1,0.2c-0.6,0.1-1.2,0.3-1.8,0.4c-1.3,0.3-2.7,0.5-4,0.7c-5.7,1.1-11.2,2.9-15.5,7c2.4,1.9,4.8,3.9,7.2,5.8
	c-5,5-4.3,11.9-4.3,18.4c0,0.8,0,1.5,0,2.3c0,0.7,0.1,1.8-0.2,2.4c-0.2,0.4-0.9,0.8-1.2,1.1c-0.4,0.4-0.8,0.7-1.2,1.1
	c-0.8,0.7-1.7,1.5-2.5,2.2c-0.4,0.4-0.8,0.7-1.2,1.1c-0.4,0.4-0.6,0.4-1.2,0.5c-0.3,0.1-0.8,0.5-1.1,0.5c-0.4,0.1-1-0.5-1.4-0.7
	c-1.9-1.2-3.7-2.3-5.6-3.5c-0.4-0.3-0.9-0.5-1.3-0.8c-0.4-0.4-0.5-0.8-0.7-1.3c-0.3-1-0.6-2-0.9-3c-0.3-1-0.6-1.9-0.8-2.9
	c-0.1-0.4-0.3-0.9-0.4-1.3c-0.1-0.4-0.2-1.3-0.5-1.6c-0.4-0.5-1.7-0.8-2.3-1c-0.8-0.3-1.6-0.6-2.4-0.9c-1.2-0.5-2.3-1.1-2.8-2.3
	c-1-2.7-2.9-3.8-5.7-4c-2.1-0.1-4.5,0.4-6.6-0.3c-1.3-0.4-2-1.5-2.3-2.7c-0.2-0.9-0.1-1.3,0.2-2.1c0.2-0.4,0.4-0.9,0.4-1.4
	c0.2-2.2-4-1.4-5.2-1.3c3.5-3,8.3-3.9,11.9-6.8c1.9-1.5,3.3-3.5,4-5.8c0.1-0.4,0.2-0.7,0.3-1.1c0.1-0.6,0.1-0.6-0.5-0.8
	c-0.8-0.3-1.7-0.7-2.5-1c-1.7-0.8-3.2-1.9-4.7-2.9c4.6,1.7,9.4,1.6,13.5-1.4c3.9-2.9,6.7-7.3,9.4-11.2c0.1,2.9,0.8,5.8,2.5,8.2
	c1.3,1.9,3.2,3.4,5.3,4.5c2,1.1,4.2,1.9,6.3,2.8c1,0.4,2.1,0.9,3.1,1.4c0.3,0.1,1,0.7,1.2,0.7c0.3,0,1.1-1,1.3-1.2
	c0.4-0.4,0.9-0.8,1.3-1.2C179.1,18.1,183,14.7,186.8,11.4z M80.6,32.3c-0.1-0.8,0.1-1.5,0.5-2.1c0.3-0.4,0.6-0.8,0.9-1.2
	c0.2-0.2,0.4-0.8,0.7-0.9c0.5-0.2,1.8,0.1,2.3,0.1c0.9,0,1.8,0.1,2.7,0.1c0.5,0,1.5-0.2,1.8,0.3c0.2,0.3-0.2,1-0.4,1.4
	c-0.5,1.3-1.1,2.5-1.7,3.7c-2.5,4.8-5.1,9.8-3.8,15.4c1.5-1.3,2.4-3.2,3.5-4.8c0.9-1.5,1.7-3.1,2.7-4.6c0.4-0.5,0.8-1.1,1.3-1.5
	c0.6-0.5,1.2-0.4,1.9-0.4c1.6-0.1,3.2-0.4,4.4-1.4c2.1-1.7,2.4-4.7,2.8-7.2c0.1-0.6,0.2-0.6,0.8-0.7c0.6-0.1,1.2-0.2,1.8-0.2
	c0.4-0.1,1-0.3,1.5-0.2c0.5,0.1,1.2,0.6,1.6,0.9c1.3,0.9,2.3,2,2.8,3.5c1.2,3.2,0.2,6.8,0.1,10.1c-1.7-2.4-3.5-4.9-5.2-7.3
	c-2.7,3.1-5,6.6-5.6,10.8c-0.3,2-0.1,4,0.5,5.9c0.1,0.5,0.3,1,0.5,1.4c0.1,0.4,0.3,0.5,0.1,0.8c-0.1,0.2-0.6,0.4-0.8,0.6
	c-1,0.8-2,1.5-3,2.3c-1.8,1.4-3.6,2.8-5.5,4.2c-1.4,1.1-3,2.6-4.8,3c-2.4,0.6-4.3-1.2-6-2.7c-0.9-0.8-1.8-1.6-2.9-2.1
	c-0.5-0.2-1-0.4-1.5-0.4c-0.2,0-0.7-0.1-0.9,0c-0.3,0.2-0.3,0.7-0.4,1.2c-0.4,2.2-1.3,4.9-0.7,7.1c0.5,1.7,2.2,2.2,3.8,2.6
	c0.6,0.1,1.2,0.3,1.8,0.4c0.6,0.1,2,0.1,2.4,0.5c0.4,0.3,0.1,1.4,0.1,1.8c0,0.7-0.1,1.5-0.1,2.2c-0.2,3-0.5,6.2,0.4,9.1
	c1.2,3.5,4.3,5.3,7.7,6.2c-2.5,2.9-6.3,7.2-4.8,11.3c0.7,1.9,2.3,3.4,3.8,4.6c0.5,0.4,1,0.8,1.6,1.2c0.2,0.2,0.5,0.5,0.8,0.6
	c0.3,0.1,0.1,0.2,0.4,0c0.2-0.1,0.4-0.5,0.5-0.6c1.1-1.4,2.3-2.7,3.4-4.1c2.5-3,5-6,7.5-9.1c1.7,3.5,2.7,7.4,2.4,11.3
	c-0.2,1.9-0.7,3.8-1.4,5.6c-0.4,0.9-0.7,2.1-1.6,2.5c-0.9,0.4-1.9,0.9-2.8,1.3c0.6,0.5,1.3,1.1,1.9,1.6c0.3,0.2,0.6,0.5,0.9,0.7
	c0.4,0.3,0.4,0.4,0.5,0.8c0.2,0.9,0,2.2-0.3,3.1c-0.5,1.5-1.5,2.8-2.8,3.6c-1.4,0.8-3,1.3-4.5,1.7c-1.5,0.4-3,0.9-4.5,1.4
	c0.7-6.7-2.5-12.6-5.7-18.2c-3.3-6-6.5-12-9.2-18.3c-2.7-6.3-4.9-12.8-6.2-19.6c-0.3-1.7-0.6-3.4-0.8-5.1c-0.2-1.9,0-3.7,0.1-5.6
	c0-0.9,0.7-1.6,1.2-2.3c0.2-0.3,0.7-0.8,0.7-1.1c0.1-0.3-0.3-0.9-0.4-1.2c-0.5-1.4-1.2-2.8-1.2-4.3c0-1.8,1-3.8,1.6-5.4
	c0.7-2,1.5-3.9,2.3-5.8c0.4-0.9,0.8-1.9,1.2-2.8c0.2-0.5,0.4-0.9,0.6-1.4c0.1-0.3,0.3-1.2,0.6-1.4c0.3-0.3,1.3-0.5,1.6-0.6
	c0.5-0.2,1-0.4,1.5-0.6C78.6,33.1,79.6,32.7,80.6,32.3z M74.5,53.6c0.2,0,0.7,0.2,0.9,0.2c0.4,0,0.2,0.1,0.4-0.2
	c0.2-0.2,0.6-0.9,0.6-1.3c0.1-1-1.1-1.9-1.7-2.6C74.6,51,74.5,52.3,74.5,53.6z M93.1,48.1c-0.2,0.1-1.3,0.7-1.3,0.9
	c0,0.2,0.6,1,0.7,1.1c0.5,0.8,1.1,1.6,1.6,2.5c0.5-0.3,0.9-0.6,1.4-0.9C94.7,50.5,93.9,49.3,93.1,48.1z M108.8,42.5
	c0.1-3.5,1.3-7.6-0.4-10.9c-0.4-0.9-1.1-1.6-1.8-2.2c-0.4-0.4-0.9-0.7-1.4-0.9c-0.6-0.3-0.9-0.3-0.8-1c0.2-2,0.3-4.1,0.5-6.1
	c2.2,2.1,4.4,4.2,6.6,6.2c1,0.9,2,1.8,3,2.6c1.1,0.9,2.1,0.5,3.3,0.3c0.2,0,0.6,0,0.9-0.1c0.3-0.1,0.5-0.5,0.7-0.8
	c0.4-0.6,0.8-1.2,1.2-1.8c0.6-1.1,1.2-2.2,1.5-3.3c0.6-1.8,0.8-3.8,0.1-5.7c-0.7-1.8-2.2-3-3.8-3.9c-1.1-0.6-2.2-0.8-3.3-1.2
	c-0.7-0.3-1.2-0.8-1.7-1.4c-0.3-0.3-0.7-0.6-0.9-0.9c-0.2-0.3,0-0.6,0.1-1c0.6-2.1,1.8-3.9,3.7-5.1c1.7-1,3.6-1.4,5.5-1.8
	c1.2-0.2,2.4-0.4,3.5-0.6c0.6-0.1,1.1-0.2,1.7-0.4c0.5-0.1,0.4-0.2,0.7,0.2c0.2,0.3,0.3,0.9,0.4,1.3c1.1,3.4,2.1,6.8,3.2,10.1
	c1.6-4.5,3.1-10.4,8.2-12c2.7-0.8,5.7-1.1,8.5-1.5c2.3-0.3,4.5-0.7,6.8-0.7c2.4,0,4.9,0.3,7.3,0.8c4.6,1,8.9,2.7,13.4,4.1
	c2.2,0.8,4.5,1.5,6.8,2c1,0.2,2,0.4,3,0.6c0.3,0,1.4,0,1.6,0.2c0.1,0.1,0.1,0.7,0.1,0.8c0,0.8,0.2,2,0,2.7c-0.1,0.5-0.7,0.8-1.1,1.2
	c-0.7,0.6-1.3,1.2-2,1.7c-2.1,1.8-4.2,3.7-6.3,5.5c-1.1,0.9-2.1,1.9-3.2,2.8c-0.4,0.3-1.1,1.2-1.6,1.2c-0.2,0-0.8-0.5-1-0.6
	c-1.2-0.7-2.5-1.2-3.8-1.7c-3.1-1.2-6.3-2.4-8.9-4.6c-3.1-2.7-4.5-6.5-4.7-10.6c-2.8,4-5.5,8.3-9.4,11.2c-4.1,3-8.9,3.1-13.5,1.4
	c1.7,1.1,3.2,2.3,5,3.1c0.8,0.3,1.8,0.5,2.5,1c0.3,0.2,0.2-0.1,0.2,0.4c0,0.1-0.1,0.4-0.1,0.6c-0.1,0.4-0.2,0.8-0.3,1.2
	c-0.8,2.5-2.4,4.5-4.5,6c-2,1.4-4.3,2.4-6.5,3.5c-2.6,1.2-4.8,2.9-7.2,4.4c-2,1.2-4,2.5-6.1,3.6c-0.8,0.4-1.6,0.9-2.6,0.8
	C110.7,43.1,109.8,42.7,108.8,42.5z M169.5,62.1c0.7-4.4-0.1-8.8,0.3-13.3c0.2-2.2,0.7-4.4,1.7-6.3c0.5-1,1.2-2,1.9-2.8
	c0.4-0.5,0.6-0.7,1.2-0.7c0.6,0,1.1,0.1,1.7,0.2c3.2,0.4,6.5,1.3,9,3.5c2.2,1.8,3.3,4.4,3.6,7.2c0.4,4.3-1,8.6-2.6,12.5
	c2.6,0.6,5.2,1.2,7.8,1.8c-1.5,4.8-0.8,9.7,3,13.3c2,1.9,4.7,2.8,6.4,5c0.4,0.6,0.9,1.2,1.3,1.8c0.2,0.3,0.4,0.5,0.5,0.8
	c0.3,0.3,0.6,0.5,0.4,0.9c-0.1,0.4-0.7,0.8-1,1.1c-0.4,0.4-0.7,0.8-1.1,1.3c-2.1,2.4-4.3,4.9-6.4,7.3c4.1,0,8.1,0,12.2,0
	c-2.4,2-4.8,4.1-7.2,6.1c-1.2,1-2.4,2-3.6,3.1c-0.5,0.4-1,0.9-1.5,1.3c-0.2,0.2-0.6,0.7-0.9,0.8c-0.3,0.1-1-0.2-1.4-0.2
	c-0.3-0.1-0.8,0-1-0.2c-0.1,0-0.2,0-0.3-0.1c-0.1-0.3-0.1-0.5-0.2-0.8c-0.2-0.8-0.3-1.5-0.5-2.3c-0.3-1.5-0.6-3.1-0.9-4.6
	c-0.3-1.4-0.6-2.8-0.8-4.2c-0.1-0.5-0.1-0.7-0.4-1c-0.2-0.3-0.6-0.6-0.8-0.8c-0.6-0.7-1.3-1.3-1.9-2c-2.1-2.1-4.2-4.3-6.4-6.3
	c-0.5-0.4-0.9-0.9-1.4-1.3c-0.6-0.5-1.4-0.9-1.8-1.5c-0.3-0.4-0.3-0.2-0.2-0.8c0-0.3,0.1-0.6,0.1-0.8c0.1-0.5,0.1-1,0.4-1.5
	c0.7-1,1.6-1.8,2.3-2.9c0.5-1,0.9-2.1,1.1-3.2c0.4-2.2,0.3-4.5,0.1-6.7c-0.1-1.2-0.1-2.5-0.1-3.7c0-1.1,0.4-2.4,0.1-3.4
	c-0.3-1-1.2-1.9-1.9-2.6c-1-1.1-2.1-2.1-3-3.3C174.4,55.8,171.9,59,169.5,62.1z M203.2,139.5c-9.5,3.8-19.1,7.4-28.3,11.8
	c-1.1,0.5-2.2,1.1-3.3,1.6c-0.4,0.2-0.8,0.5-1.2,0.3c-0.4-0.2-0.7-0.7-1-1.1c-1.1-1.3-1.9-2.7-2.6-4.2c-1.3-2.9-2.2-6.4-1.5-9.6
	c0.7-3.2,3.4-4.9,6.4-5.7c2.1-0.6,4.1-1.3,6.1-2.1c5.1-1.8,10.2-3.7,15.1-6c0.4-0.2,0.8-0.4,1.2-0.6c0.2-0.1,0.6-0.5,0.8-0.5
	c0.4,0,1.2,0.7,1.6,0.9c0.6,0.3,1.2,0.6,1.8,0.9c1.1,0.6,2.2,1.2,3.3,1.9c1.1,0.7,2.1,1.5,3.1,2.4c0.5,0.4,1,0.9,1.4,1.3
	c0.2,0.2,0.4,0.4,0.7,0.6c0.1,0.1,0.2,0.2,0.3,0.2c0.3,0.1,0.4,0.3,0.1,0.6c-0.2,1.3-1,2.7-1.5,3.9c-0.2,0.5-0.3,1.3-0.7,1.8
	C204.7,138.6,203.7,139.1,203.2,139.5z M112.3,11.2c0.6,0.6,1.2,1.2,1.8,1.8c0.6,0.6,0.7,1.2,0.9,2c0.4,1.7,0.8,3.5,1.3,5.2
	c0.8,3.4,1.7,6.8,2.5,10.2c-1.2,0.1-2.8,0.8-3.9,0.1c-1.1-0.6-2-1.7-3-2.5c-2.4-2.2-4.7-4.4-7.1-6.6c-0.1,1.8-0.3,3.5-0.4,5.3
	c0,0.3,0,0.5-0.1,0.8c0,0.6-0.2,0.5-0.8,0.6c-0.6,0.1-1.2,0.2-1.8,0.2c-0.3,0-0.6,0.1-0.9,0.1c-0.4,0.1-0.4,0.1-0.7-0.2
	c-0.6-0.5-1-1.5-1.6-2.1c-0.5-0.6-1.1-1.1-1.8-1.5c-1.6-0.9-3.4-0.9-5.2-0.4c-0.1-1.4-0.3-2.9-0.4-4.3c-0.1-1.1,0.9-2.1,1.6-2.9
	c1.3-1.6,3-2.9,4.9-3.8c1.8-0.9,3.9-1.6,5.9-2c1.3-0.2,2.8-0.1,4.2-0.2C109.2,11.1,110.8,11.2,112.3,11.2z M207.3,132
	c-1.3-1.1-2.4-2.3-3.7-3.3c-1.3-1.1-2.7-1.9-4.2-2.7c-0.7-0.4-1.4-0.8-2.1-1.1c-0.6-0.3-1.6-0.6-2.1-1.1c-0.3-0.1-0.4-0.2-0.3-0.6
	c0-0.3,0-0.5,0-0.8c0-0.4,0-0.8,0-1.2c0-0.9,0-1.8-0.1-2.8c0-1.8,0.2-3.6,0.4-5.3c0.1-0.8,0-1.8,0.3-2.6c-0.1-0.3,0-0.5,0.4-0.5
	c0.2-0.1,0.4-0.2,0.6-0.3c0.3-0.1,0.6-0.3,1-0.4c3.1-1.4,6.3-2.8,9.4-4.1c1.7,4.6,0,9.6-0.6,14.2c-0.2,1.2-0.2,2.3-0.2,3.5
	c0,1.1-0.1,2.1,0.1,3.2C206.5,128,207.3,129.9,207.3,132z M209.3,95.6c-4.1,0-8.1,0-12.2,0c1.8-2,3.6-4.1,5.4-6.1
	c0.7-0.8,1.3-1.5,2-2.3c0.3-0.4,0.6-0.7,0.9-1.1c0.3-0.3,0.2-0.3,0.6-0.3c0.3,0,0.6,0.2,0.8,0.3c1.7,0.7,3.7,1.7,4.3,3.6
	C211.8,91.8,210.5,94,209.3,95.6z M195.5,110c-0.3,2.4-0.5,4.7-0.8,7.1c-2.6-1.4-4.4-3.8-3.5-6.8c0.2-0.6,0.4-1.2,0.7-1.8
	c0.3-0.5,0.7-1.7,1.2-2c0.2-0.1,2.7,0.1,2.9,0.4c0.1,0.2-0.2,1.4-0.2,1.6C195.7,109,195.6,109.5,195.5,110z M91.1,19.4
	c0.1,1.5,0.5,3.2,0.4,4.7c-0.1,0.7-0.6,1.5-0.9,2.1c-0.4,0.8-0.7,1.5-1.1,2.3c-0.5-0.4-0.5-0.8-0.6-1.5c-0.1-0.4-0.2-0.9-0.2-1.3
	c-0.1-0.6,0-0.8,0.2-1.3C89.7,22.8,90.4,21.1,91.1,19.4z M88.6,25.2c0.2,1,0.4,2,0.5,3.1c-2.2-0.1-4.4-0.2-6.5-0.3
	C84.6,27.1,86.6,26.2,88.6,25.2z M80.6,32.3c-2.1,0.8-4.1,1.6-6.2,2.4C76.5,33.9,78.6,33.1,80.6,32.3z M108.5,11.1
	c-1.6,0-3.1,0.1-4.7,0.1C105.4,11.2,106.9,11.2,108.5,11.1z M82.6,28c-0.6,0.8-1.2,1.6-1.7,2.4C81.5,29.7,82,28.8,82.6,28z
	 M203.2,139.5c0.6-0.5,1.2-0.9,1.8-1.4C204.5,138.5,203.8,139,203.2,139.5z M69.8,57.2c-0.6,0.9-1.3,1.9-1.9,2.8
	C68.5,59.1,69.2,58.1,69.8,57.2z M101.8,112.9c2.5-4.6,3.2-9.7,1.8-14.8c-0.4-1.3-0.8-2.5-1.4-3.7c-0.1-0.2-0.3-0.5-0.3-0.7
	c0-0.3,0.3-0.9,0.4-1.1c0.2-0.8,0.5-1.5,0.7-2.3c0.8-2.7,1.6-5.3,2.5-8c0.3-1,0.5-3,1.3-3.6c0.8-0.6,2.2-0.8,3.1-1.3
	c1.9-0.9,3.2-2.4,4.6-3.9c2.9-2.9,6-5.5,9.8-7.2c1.1-0.5,2.3-0.9,3.5-1.2c0.6-0.2,1.3-0.3,1.9-0.4c0.2,0,0.6-0.2,0.8-0.1
	c0.3,0.1,0.4,0.7,0.5,1.1c0.9,2.9,1.7,5.8,2.6,8.7c-0.6,0.1-1.1,0.1-1.7,0.2c-0.7,0.1-0.8,0.4-1.3,0.9c-0.7,0.9-1.5,1.7-2.2,2.6
	c-0.3,0.4-0.8,0.7-1,1.1c-0.2,0.4-0.3,0.9-0.5,1.4c-0.3,1-0.7,1.9-1.1,2.8c-1.4,3.5-3.1,6.9-4.5,10.5c-1.4,3.5-2.6,7.2-3.1,11
	c-0.3,2-0.3,4-0.3,6c0,1.8-0.6,3.6-1.4,5.3c-0.8,1.8-1.9,3.6-2.8,5.3c-0.5,0.9-0.8,1.9-1.4,2.7c-0.5,0.7-2.1,1-3,1.2
	c-0.5,0.2-0.9,0.3-1.5,0.3c-0.3,0-0.7-0.1-1-0.1c-0.8-0.1-1.6-0.2-2.4-0.2c-1.4,0-2.9,0.2-4.1,1c-1.5,0.9-2.1,2.5-3.2,3.9
	c-0.7,0.9-1.4,1.7-2.2,2.6c-0.3,0.4-0.6,0.9-1,1.2c-0.4,0.3-0.3,0.3-0.7,0c-0.7-0.5-0.8-1.6-1.1-2.3c-0.4-1.1-0.8-2.2-1.2-3.3
	c-0.1-0.2-0.6-1.3-0.5-1.4c0.1-0.1,0.7-0.3,0.8-0.3c0.6-0.2,1.2-0.4,1.8-0.6c2.4-0.7,5.2-1.2,7-3.1c0.9-1,1.5-2.2,1.7-3.5
	c0.1-0.9,0.1-1.8,0.1-2.8C101.7,115.6,101.8,114.3,101.8,112.9z M110.1,89.4c-0.2-0.1-1.2-0.6-1.4-0.5c-0.2,0.1-0.4,1-0.5,1.2
	c-0.3,0.9-0.7,1.7-1,2.6c0.5,0.2,1,0.4,1.5,0.5C109.2,91.9,109.7,90.7,110.1,89.4z M193.2,106.3c-1.3,1.9-2.8,4.4-2.2,6.8
	c0.3,1.2,1.1,2.2,2,3c0.3,0.3,0.7,0.5,1,0.7c0.5,0.3,0.6,0.3,0.6,0.9c0,1,0,2,0.1,3c0,0.5,0,1.1,0,1.6c0,0.3,0.1,1,0,1.2
	c-0.1,0.1-0.4,0.2-0.5,0.3c-0.5,0.3-1.1,0.6-1.6,0.8c-1.7,0.8-3.5,1.5-5.2,2.2c-4.1,1.6-8.2,3.2-12.4,4.6c-3.7,1.3-8.5,2-9.7,6.2
	c-0.8,2.6-0.3,5.6,0.5,8.2c0.9,2.8,2.4,5.5,4.6,7.4c-2.8,3-5.6,6-8.4,9.1c-1.4,1.5-2.7,2.9-4.1,4.4c-0.6,0.7-1.1,1.2-2,1.6
	c-0.7,0.3-1.5,0.5-2.2,0.9c-1.5,0.7-2.2,1.7-3.3,2.9c-1,1.2-2.2,2.2-3.4,3.2c-2.3,1.7-5,3-7.7,3.8c-3.3,1-6.7,1.4-10.1,1.5
	c-0.1-2.5-0.1-4.9-0.2-7.4c0-1.1,0-2.3-0.1-3.4c0-0.5-0.2-1.4,0-1.9c0.1-0.5,0.6-1,0.9-1.5c2.1-3.5,3.5-7.5,2.8-11.7
	c-0.2-1-0.4-2-0.8-3c-0.4-1-0.9-1.9-1-3c-0.2-2,0.2-4.2,0.7-6.1c0.5-2.2,1.5-4.3,1.7-6.6c0.2-1.7,0-3.5,0.4-5.2
	c0.7-2.7,2.5-4.7,5-5.8c0.7-0.3,1.3-0.5,2-0.7c0.4-0.1,0.8-0.2,1.1-0.3c0.7-0.1,0.8-0.1,1.4,0.3c0.8,0.5,1.5,1.1,2.3,1.7
	c0.6,0.5,1.5,0.7,2.2,1.1c3,1.3,5.8,3.3,9.1,3.7c1.9,0.2,3.7-0.2,5.3-1c0.8-0.4,1.6-1,2.4-1.3c0.9-0.3,1.9-0.5,2.9-0.5
	c2.1-0.2,4.1-0.2,6.2-0.4c1.1-0.1,2.3-0.2,3.4-0.4c1.2-0.1,2.6,0,3.7-0.4c0.6-0.2,0.2,0.1,0.4-0.4c0.1-0.2,0-0.6,0-0.8
	c0-0.5-0.1-0.9-0.1-1.4c-0.1-1-0.3-1.9-0.5-2.8c-0.4-1.6-1-3.1-1.7-4.7c-1.3-2.9-2.8-5.8-3.4-8.9c-0.2-0.8-0.3-1.7-0.3-2.5
	c0-0.2,0-0.5,0-0.6c-0.2-0.6,0.1-0.1-0.2-0.4c-0.3-0.2-0.9-0.2-1.2-0.4c-1.2-0.5-2.3-1.2-3.2-2.2c-1.8-2-2.7-4.7-3.4-7.2
	c-0.8-2.9-1.4-5.8-2.5-8.5c-0.6-1.5-1.3-2.9-2.4-4c-0.7-0.7-1.4-1.3-2.1-2c-0.2-0.2-0.4-0.4-0.6-0.5c-0.3-0.3-0.3-0.3-0.3-0.7
	c-0.1-0.6,0.1-1.3,0.1-1.9c0-0.6,0-1.2,0.1-1.7c0-0.6,0.3-0.9,0.7-1.5c0.4-0.5,0.7-0.9,0.8-1.6c0.1-0.6,0-1.3,0.1-1.9
	c0-0.5-0.1-1.3,0.2-1.6c0.2-0.3,0.9-0.4,1.2-0.5c0.7-0.2,0.6,0.1,0.8,0.7c0.2,0.6,0.4,1.2,0.5,1.8c0.6,2.1,1.3,4.2,1.9,6.4
	c0.3,1.1,0.7,2.1,1,3.2c0,0.2,0.1,0.6,0.2,0.7c0.3,0.4,0.1,0.4,0.7,0.4c0.7,0,1.4,0,2.1,0c2.4,0,4.7,0,7.1,0c0.6,0,0.9,0.1,1.4,0.5
	c0.5,0.4,1,0.8,1.5,1.3c0.4,0.3,0.8,0.7,1.1,1c0.3,0.2,1.3,1,1.4,1.3c0.1,0.3-0.1,0.8-0.1,1.2c0,0.4,0,0.9,0.1,1.3
	c0.1,0.7,0.3,1.4,0.6,2c0.5,1.2,1.5,2,2.6,2.6c1.3,0.7,2.7,1,4.1,1.2c0.2,0,0.9,0,1.1,0.1c0.2,0.2,0.3,1.5,0.3,1.7
	c0.2,1.2,0.5,2.4,0.7,3.6C192.3,101.5,192.7,103.9,193.2,106.3z M106.5,78.9c-1.3,4.3-2.6,8.6-4,12.9c-0.2,0.5-0.3,1-0.5,1.5
	c-0.2,0.6-0.6,1-1,1.4c-0.7,0.9-1.4,1.7-2.1,2.6c-1.4,1.7-2.8,3.4-4.3,5.1c-0.7,0.9-1.4,1.7-2.1,2.6c-0.3,0.4-0.7,0.8-1,1.2
	c-0.2,0.2-0.9,1.4-1.1,1.4c-0.2,0-1-0.7-1.2-0.9c-0.3-0.2-0.7-0.5-1-0.7c-0.6-0.5-1.2-1-1.8-1.5c-1.7-1.6-3-3.6-2.8-6
	c0.3-3.3,3-6.3,5.1-8.7c-2.3-0.6-4.7-1.7-6.2-3.6c-1.2-1.5-1.8-3.4-2-5.2c-0.2-2,0-4.1,0.1-6.1c0.1-1,0.1-2,0.2-3.1
	c0-0.2-0.1-0.6,0-0.9c0.1-0.3,0.4-0.4,0.7-0.5c0.9-0.4,1.9-0.9,2.8-1.3c-0.8-0.9-1.5-1.8-2.3-2.7c-0.3,0.8-0.6,1.6-0.8,2.4
	c-0.1,0.4-0.3,1-0.5,1.4c-0.1,0.3,0,0.2-0.3,0.3c-0.1,0-0.6-0.1-0.6-0.1c-1-0.2-2.1-0.4-3.1-0.6c-1.2-0.3-2.7-0.6-3.5-1.7
	c-0.8-1-0.7-2.4-0.6-3.6c0.1-1,0.3-2.1,0.5-3.1c0.1-0.6,0.2-1.2,0.4-1.8c0.1-0.4,0-0.6,0.3-0.7c0.2-0.1,0.5,0,0.7,0
	c3.7,0.3,5.3,4.7,8.9,5.3c2.6,0.4,4.8-1.8,6.7-3.2c2.9-2.2,5.8-4.4,8.7-6.6c0.1-0.1,0.4-0.3,0.5-0.4c0-0.1-0.3-0.7-0.3-0.8
	c-0.2-0.4-0.3-0.8-0.4-1.3c-0.3-0.9-0.4-1.7-0.5-2.6c-0.2-1.6,0-3.3,0.4-4.9c0.9-3.5,3-6.5,5.3-9.2c1.1,1.5,2.2,3,3.2,4.6
	c0.5,0.7,0.9,1.3,1.4,2c0.2,0.3,0.4,0.6,0.7,0.8c0.4,0.2,0.9,0.3,1.3,0.4c0.6,0.2,1.3,0.5,2,0.4c0.8,0,1.6-0.6,2.4-1
	c1.7-0.9,3.3-1.9,5-2.9c0.8-0.5,1.6-1,2.4-1.5c0.4-0.2,0.7-0.5,1.1-0.6c0.4-0.1,0.9,0,1.3-0.1c0.9,0,2-0.1,2.9,0.2
	c1.4,0.5,0.6,2.5,0.1,3.4c-0.3,0.6-1.1,1-1.6,1.4c-0.6,0.5-1.2,1-1.8,1.5c-1.6,1.3-3.1,2.5-4.7,3.8c2.6,0.8,6,2,7.3,4.7
	c0.5,0.9,0.5,2,0.3,3c-0.1,0.6-0.4,1.1-0.6,1.6c-0.1,0.3-0.3,0.7-0.5,0.9c-0.3,0.3-0.9,0.5-1.3,0.7c-3.3,2-6.2,4.7-9.6,6.5
	c-2.7,1.4-5.7,2.3-7.5,5C105.7,72.7,105.9,76,106.5,78.9z M106.5,78.9c-0.5-2.6-0.8-5.5,0.4-8c1.3-2.7,4-4.1,6.7-5.2
	c3.6-1.5,6.4-4.2,9.6-6.3c0.7-0.5,1.6-0.9,2.3-1.4c0.6-0.4,0.9-1.2,1.2-1.9c0.4-1,0.6-2.1,0.3-3.1c-0.9-3.1-4.8-4.6-7.6-5.4
	c2.7-2.2,5.3-4.3,8-6.5c0.1,1.3,0.5,2.6,1.6,3.4c0.9,0.6,2,0.7,3.1,0.7c2.3,0,4.9-0.4,7.1,0.5c1.3,0.5,2.2,1.4,2.7,2.7
	c0.3,0.6,0.4,1.2,0.8,1.7c0.4,0.5,1.1,0.9,1.7,1.1c1.6,0.7,3.2,1.2,4.8,1.9c0.5,0.2,0.6,0.4,0.7,0.9c0.1,0.4,0.3,0.9,0.4,1.3
	c0.3,1,0.6,2.1,0.9,3.1c0.3,1,0.6,2,0.9,3c0.1,0.4,0.6,1.3,0.5,1.7c0,0.3-0.1,0.2-0.4,0.4c-0.3,0.1-0.5,0.2-0.8,0.3
	c-1.7,0.7-3.5,1.4-5.2,2.1c-0.9,0.4-1.9,0.7-2.8,1.1c-0.5,0.2-0.9,0.4-1.4,0.6c-0.7,0.3-0.9,0.2-1,0.9c-0.2,1.8-0.4,3.6-0.7,5.4
	c-0.1,0.7-0.3,0.6-1,0.6c-0.5,0-1.1,0-1.6,0c-0.9,0-1.8,0-2.7,0c-0.4,0-1,0.1-1.3,0c-0.4-0.1-0.1,0.2-0.4-0.4
	c-0.1-0.2-0.2-0.5-0.2-0.7c-0.3-1.1-0.6-2.2-1-3.2c-0.3-1-0.6-2-0.9-2.9c-0.1-0.5-0.3-1-0.4-1.5c-0.1-0.2-0.1-0.6-0.2-0.8
	c-0.3-0.5-0.2-0.4-0.8-0.3c-1.8,0.3-3.5,0.8-5.2,1.5c-3.4,1.4-6.4,3.7-9.1,6.2c-1.3,1.3-2.5,2.8-4,4
	C110.2,77.7,108.2,78.1,106.5,78.9z M133.5,74.5c1,0,2,0,3,0c0.5,0,1.1,0,1.6,0c0.5,0,1.5,0.2,2,0c0.4-0.2,0.3-1,0.4-1.5
	c0.1-0.6,0.1-1.2,0.2-1.7c0.1-0.9,0-2.1,0.4-3c0.2-0.4-0.1-0.1,0.4-0.5c0.2-0.2,0.6-0.2,0.9-0.4c0.5-0.2,1-0.4,1.5-0.6
	c1.2-0.5,2.4-0.9,3.6-1.4c0.9-0.4,1.8-0.7,2.8-1.1c0.5-0.2,1-0.4,1.5-0.6c0.2-0.1,0.7-0.4,0.9-0.4c0.3,0,0.8,0.5,1,0.6
	c2.2,1.4,4.4,2.7,6.5,4.1c0.2,0.1,0.6,0.3,0.8,0.5c0.2,0.3,0.2,0.5,0.1,0.9c0,0.6,0,1.3-0.1,1.9c0,0.6,0,1.1-0.3,1.6
	c-0.3,0.5-0.9,1.1-1.2,1.6c-0.2,0.5-0.1,1.4-0.1,1.9c0,0.6-0.1,1.3-0.1,1.9c0,0.9-0.3,1.8-0.4,2.8c-0.2,1.8,0,3.5,0.1,5.3
	c0.3,4.4,0,8.6-3.6,11.7c-2.3-3.6-4.6-7.5-7.6-10.6c-3-2.9-6.8-4.9-10.4-7c-0.8-0.5-1.5-0.9-2.4-1.1c-1-0.2-2-0.4-3.1-0.6
	c-0.3-0.1-0.4,0-0.5-0.3c-0.1-0.2,0-0.8,0-1c0-0.5,0-1-0.1-1.6c0-0.2-0.1-0.6,0-0.8c0.1-0.5-0.1-0.3,0.4-0.4
	C132.2,74.6,133,74.6,133.5,74.5z M177.7,81.2c-2,0-4,0-6,0c-1,0-2,0-3.1,0c-0.3,0-1.3,0.2-1.6,0c-0.2-0.2-0.4-1.2-0.4-1.5
	c-1.1-3.6-2.2-7.2-3.3-10.8c-0.1-0.2-0.1-0.4-0.2-0.6c-0.2-0.3-0.1-0.5,0.2-0.6c0.3-0.4,0.8-0.7,1.2-1.1c0.8-0.7,1.6-1.4,2.3-2.1
	c1.4-1.2,2.6-2.4,3.8-3.8c2.1-2.7,4.1-5.4,6.2-8c0.9,1.2,2,2.2,3,3.3c0.7,0.8,1.7,1.7,2,2.8c0.3,1-0.2,2.4-0.2,3.5
	c0,1.4,0.1,2.7,0.2,4.1c0.2,2.6,0.3,5.3-0.6,7.8c-0.5,1.3-1.2,2.5-2.2,3.5c-0.5,0.5-0.9,0.8-1,1.5C177.8,79.9,177.8,80.6,177.7,81.2
	z M89.6,28.6c0.4-0.9,0.9-1.9,1.3-2.8c0.2-0.3,0.4-1.2,0.7-1.4c0.3-0.2,1.1-0.3,1.5-0.3c1.4-0.2,2.8,0.1,4,0.9
	c1.2,0.8,2.1,1.9,2.9,3.1c0.6,0.9,0,2.7-0.3,3.8c-0.5,2.2-1.4,4.2-3.5,5.2c-1.4,0.6-2.7,0.5-4.2,0.7c-1.1,0.2-1.8,1.3-2.4,2.2
	c-1,1.5-1.7,3.1-2.7,4.6c-1,1.6-1.8,3.4-3.3,4.6C81.8,41.3,87.2,35.4,89.6,28.6z M74.5,53.6c0.1-1.3,0.2-2.6,0.3-3.9
	c0.5,0.7,1.7,1.7,1.7,2.6c0,0.4-0.3,0.9-0.5,1.2c-0.3,0.3-0.1,0.3-0.5,0.3C75.1,53.8,74.7,53.6,74.5,53.6z M93.1,48.1
	c0.8,1.2,1.6,2.4,2.4,3.6c-0.5,0.3-0.9,0.6-1.4,0.9c-0.5-0.8-1.1-1.6-1.6-2.5c-0.1-0.2-0.8-1-0.7-1.1C91.8,48.7,92.9,48.2,93.1,48.1
	z M101.8,112.9c0,1.4-0.1,2.9-0.1,4.3c-1.1-0.9-2.1-1.8-3.2-2.7C99.6,113.9,100.7,113.4,101.8,112.9z M118.7,30.4
	c-1.4-5.6-2.7-11.3-4.1-16.9C123.6,15.6,125.1,22,118.7,30.4z M190.7,93.7c-5.1-0.5-9-2.2-8.3-8.4C185.1,88.1,187.9,90.9,190.7,93.7
	z M182.3,85.3c-0.7-0.7-1.5-1.4-2.2-2C180.9,83.9,181.6,84.6,182.3,85.3z M131.4,78.7c1,0.2,1.9,0.4,2.9,0.6
	c0.3,0.1,0.8,0.1,1.1,0.2c0.4,0,0.5,0.1,0.3,0.5c0,0.3-0.1,0.5-0.1,0.8c-0.1,0.5-0.1,1-0.2,1.5c-0.1,0.5,0,0.6-0.4,0.8
	c-0.6,0.3-1.5,0.3-2.2,0.5c-2.2,0.7-4.1,2.1-4.9,4.4c-0.7,2.1-0.4,4.4,0,6.6c0.7,3.5,2.3,6.6,3.6,9.9c-2.5,0.5-4.1,1.9-4.4,4.5
	c-0.1,1.1,0,2.2,0,3.3c0.1,1.6,0,3.1,0,4.7c0,4,0.3,7.9,0.3,11.9c0,3.9-0.6,7.5-1.5,11.3c-1.6,6.8-2.3,14.1-0.2,20.9
	c0.5,1.7,1.2,3.3,2,4.8c0.4,0.8,1.2,1.7,1.3,2.5c0.1,0.9,0.2,2.1,0,3c-0.1,0.6,0.1,0.3-0.3,0.4c-0.2,0.1-0.5,0.1-0.7,0.1
	c-0.4,0-0.9,0.1-1.3,0.1c-0.9,0.1-1.7,0.1-2.6,0c-1.7-0.1-3.3-0.3-4.9-0.7c-1.8-0.4-3.6-1.1-5.2-2c-1.8-0.9-3.3-2.1-4.9-3.3
	c-1.4-1-3.1-0.4-4.7-0.7c-0.6-0.1-0.8-0.4-1.2-0.9c-0.4-0.4-0.7-0.9-1.1-1.3c-0.8-0.9-1.5-1.9-2.3-2.8c5-1.7,6.8-6.4,8.7-10.9
	c0.5-1.1,1-2.2,1.6-3.2c0.8-1.3,1.7-2.4,2.4-3.7c1.5-2.9,2.3-6.1,2.1-9.3c-0.1-1.7-0.5-3.3-1-4.9c-0.3-0.8-0.6-1.6-0.9-2.3
	c-0.2-0.4-0.5-0.8-0.6-1.2c-0.1-0.4,0.3-1,0.5-1.4c1.5-2.9,3.4-5.7,4.5-8.8c1.1-3.1,0.5-6.4,1-9.6c0.4-3.1,1.3-6.2,2.4-9.2
	c1.2-3.3,2.7-6.5,4.1-9.7c0.7-1.6,1.4-3.2,2-4.9c0.1-0.4,0.3-0.8,0.4-1.2c0.2-0.6,0.3-0.6,1-0.7C129.2,79.1,130.3,78.9,131.4,78.7z
	 M112.1,124.6c2.8,5.1,3.6,11.1,1.2,16.5c-1,2.3-2.7,4.2-3.8,6.5c-0.9,1.8-1.6,3.8-2.5,5.6c-0.8,1.8-1.9,3.5-3.3,4.9
	c-0.8,0.7-1.7,1.3-2.7,1.8c-0.2,0.1-0.5,0.3-0.8,0.3c-0.4,0.1-0.5-0.1-0.8-0.5c-0.6-0.6-1.2-1.2-1.8-1.9c-1.2-1.2-2.4-2.5-3.6-3.7
	c-0.5-0.6-1.1-1.1-1.6-1.7c-0.3-0.3-0.5-0.6-0.8-0.9c-0.2-0.3-0.8-0.7-1-1c-0.3-0.7,0.4-2.2,0.7-2.8c0.4-0.9,0.9-1.7,1.4-2.6
	c1.1-1.9,2-4,1.1-6.2c-0.1-0.3-0.3-0.6-0.4-0.9c-0.2-0.5-0.2-0.6-0.1-1.2c0.2-1,0.2-2.1,0.8-2.8c1.2-1.5,2.5-3,3.7-4.5
	c1.4,1.4,4.1,4.8,6.3,3.2c1.2-0.8,1.9-2.3,2.5-3.5c0.3-0.5,0.5-1,0.7-1.5c0.2-0.5,0.5-1.3,0.8-1.7c0.4-0.4,1.3-0.6,1.9-0.8
	C110.7,125.1,111.4,124.9,112.1,124.6z M104,165.3c1.1,0.1,2.2,0,3.2,0.1c1.1,0.1,1.7,0.5,2.6,1.2c1.8,1.4,3.8,2.6,5.9,3.5
	c4.2,1.8,8.8,2.2,13.3,1.6c0.1,3,0.1,5.9,0.2,8.9c-1.8,0-3.6-0.1-5.4-0.1c-0.1,0-0.3,0-0.4,0c-0.3,0.1-0.5,0-0.4-0.3
	c-0.1-0.3-0.1-0.7-0.2-1c-0.1-0.5-0.3-1.1-0.5-1.6c-0.8-1.7-2.4-2.8-4.3-3.1c-0.9-0.2-1.9-0.2-2.9-0.1c-0.5,0-1.2,0.2-1.7,0.2
	c-0.7-0.1-1.4-1.2-1.9-1.7C109,170.4,106.5,167.9,104,165.3z M113.2,174.7c3.2-0.4,7.2-0.5,9,2.8c0.2,0.4,0.4,0.9,0.5,1.4
	c0.1,0.3,0.5,1.3,0.3,1.5c-0.2,0.4-0.7-0.1-1.1-0.3c-0.7-0.3-1.4-0.7-2.2-1c-1.4-0.7-2.9-1.4-4.3-2
	C114.5,176.5,112.8,176.1,113.2,174.7z M108.2,125.9c-4.1,8.8-5.1,9.2-10.5,3.7C100,124.8,104.1,125.4,108.2,125.9z M110.1,89.4
	c-0.5,1.3-0.9,2.5-1.4,3.8c-0.5-0.2-1-0.4-1.5-0.5c0.3-0.9,0.7-1.7,1-2.6c0.1-0.2,0.3-1.1,0.5-1.2C108.9,88.8,109.9,89.3,110.1,89.4
	z M131.4,78.7c-1.4,0.2-2.8,0.5-4.1,0.7c1.3-1.5,2.7-3,4-4.6C131.3,76.1,131.4,77.4,131.4,78.7z M129,167.9c-2.5-4-4.1-8.5-4.5-13.1
	c-0.4-4.6,0.2-9.3,1.2-13.9c0.6-2.5,1.2-4.9,1.4-7.4c0.3-2.6,0.3-5.1,0.2-7.7c-0.1-2.7-0.2-5.3-0.2-8c0-2.1,0.1-4.1,0-6.2
	c-0.1-1.5-0.2-3.2,0.4-4.6c0.3-0.7,0.8-1.3,1.5-1.8c0.4-0.3,0.9-0.5,1.3-0.6c0.2-0.1,0.4-0.1,0.5-0.2c0.3-0.1,0.6,0,0.5-0.2
	c0.7,0.7,1.5,1.5,2.2,2.2c0,0-0.1-0.1-0.1-0.1c0.7,0.7,1.5,1.5,2.2,2.2c0,0,0,0-0.1-0.1c0.4,0.9,0.8,1.9,1.2,2.8
	c0.2-0.7,0.2-1.9,0.6-2.5c0.1-0.1,0.7-0.6,0.8-0.6c0.4,0,1.6,1.3,1.9,1.6c0.7,0.6,1.5,1.2,2.2,1.9c0.4,0.3,0.8,0.8,1.2,1
	c0.3,0.2,0.1,0.2,0.4,0.1c0.1,0,0.3-0.2,0.4-0.3c0.4-0.3,0.8-0.5,1.2-0.8c0.5-0.4,0.6-0.4,0.6-1c-0.1-1.5-0.3-3-0.6-4.5
	c-1.4-5.9-4.7-11.1-7.4-16.5c-0.7-1.5-1.4-3-2.1-4.5c-0.3-0.8-0.8-1.7-0.8-2.5c0-1,0.2-2.2,0.4-3.2c4,2.3,8.4,4.4,11.8,7.6
	c3.3,3.1,5.6,7.2,8,10.9c2.8-2.4,3.7-5.7,3.7-9.3c0-3.2-0.7-6.5,0.2-9.7c1.1,1.1,2.3,2,3.3,3.1c0.9,1,1.5,2.2,2.2,3.3
	c1.3,2.2,2.5,4.4,3.8,6.5c1.4,2.1,2.9,4,4.8,5.6c1,0.8,2.1,1.6,3.3,2.2c0.6,0.3,1.2,0.6,1.9,0.9c0.7,0.3,1.1,1.2,1.4,1.9
	c2.8,5.4,3.8,11.4,4,17.4c0,1.5,0.1,3,0.1,4.5c0,0.8,0,1.6,0,2.4c0,0.2,0.1,0.9,0,1c-0.1,0.1-0.4,0-0.5,0.1c-2,0.2-4,0.5-5.9,0.7
	c-3.9,0.5-7.8,1-11.7,1.4c-2.4,0.2-4.7,0.5-7.1,0.8c-0.9,0.1-1.7,0.3-2.6,0.4c-0.7,0.1-1.5-0.1-2.2-0.1c-1.5-0.1-2.8-0.4-4-1.2
	c-2.3-1.5-3.7-3.9-6-5.5c-0.3-0.2-0.5-0.3-0.8-0.5c-0.4-0.3-0.5-0.3-0.9-0.3c-0.6,0-1.2,0.3-1.8,0.4c-1,0.3-2,0.7-2.9,1.2
	c-1.7,1-2.9,2.4-3.6,4.3c-0.9,2.5-0.4,5-1,7.5c-0.7,3.1-1.8,6-2.2,9.3c-0.1,1.4,0,2.7,0.6,4.1c0.7,1.5,1.2,3.1,1.3,4.7
	c0.3,2.9-0.4,5.8-1.6,8.5C130.6,165.4,129.9,166.7,129,167.9z M164.7,101.1c-0.2,0.3-0.3,0.7-0.5,1c-0.1,0.2-0.2,0.5-0.3,0.7
	c0.1,0,0.2,0.1,0.3,0.1c0.3,0.3,1.2,0.7,1.5,0.5c0.3-0.2,0.6-0.9,0.6-1.2c0-0.5,0.1-0.4-0.4-0.6
	C165.6,101.4,165.1,101.3,164.7,101.1z M159.6,74.5c0.5-0.7,1-1.4,1.5-2.1C160.6,73.2,160.1,73.9,159.6,74.5z M80.7,70.5
	c0.5-1.4,0.9-2.8,1.4-4.2c0.8,0.9,1.5,1.8,2.3,2.7c-0.7,0.3-1.4,0.7-2.1,1c-0.3,0.2-0.7,0.4-1.1,0.5c-0.1,0.1-0.2,0.1-0.4,0.2
	C80.8,70.6,80.7,70.6,80.7,70.5z M135.4,83c2.7,8.4,8.7,15.4,10.4,24.1c0.2,1,0.3,2.1,0.4,3.1c0,0.3,0.1,0.7,0,1
	c-0.1,0.4-0.1,0.4-0.4,0.6c-0.5,0.3-1.1,0.9-1.6,1.1c-0.1,0.1-0.2,0.1-0.3,0.2c-0.2-0.2-0.4-0.3-0.6-0.5c-0.2-0.2-0.5-0.4-0.7-0.6
	c-0.5-0.4-1-0.8-1.5-1.2c-0.5-0.5-1.1-0.9-1.6-1.4c-0.2-0.2-0.4-0.3-0.6-0.5c-0.5-0.4-0.6-0.4-0.6-1c0.1-1.7,1-3.9-0.3-5.3
	c-1.5-1.8-2.6-3.7-3.4-5.9c-0.8-2.3-1.1-4.8-1.2-7.2c0-1.3,0-2.5,0.1-3.8c0-0.5,0-1.2,0.1-1.7c0.1-0.5-0.1-0.3,0.4-0.5
	C134.4,83.1,135,83.1,135.4,83z M133.8,83.3c-0.4,5.3-0.5,10.8,2,15.7c0.6,1.2,1.4,2.4,2.3,3.4c0.8,0.9,0.7,1.9,0.6,3
	c-0.1,0.9,0,2.4-0.6,3.1c-0.3,0.4-0.4,0.4-0.8,0.3c-0.4,0-1.2-0.4-1.5-0.2c-0.7-0.7-1.5-1.5-2.2-2.2c0,0,0.1,0.1,0.1,0.1
	c-0.7-0.7-1.5-1.5-2.2-2.2c0,0,0.1,0.1,0.1,0.1c-1.7-4.5-4-8.8-3.9-13.7C127.6,86.8,130,84.2,133.8,83.3z M164.7,101.1
	c0.3,0.1,0.7,0.3,1,0.5c0.2,0.1,0.5,0.2,0.7,0.3c0,0.1-0.1,0.2-0.1,0.2c0,0.3-0.3,1.2-0.6,1.4c-0.4,0.2-1.1-0.2-1.4-0.4
	c-0.4-0.3-0.4-0.2-0.2-0.7C164.4,101.9,164.6,101.5,164.7,101.1z M135.7,108.6c0.5,0,1.7,0,1.8,0.5c0.1,0.5-0.5,1.8-0.6,2.3
	C136.5,110.5,136.1,109.6,135.7,108.6z M133.5,106.5c0.7,0.7,1.5,1.5,2.2,2.2C135,108,134.3,107.2,133.5,106.5z M131.4,104.4
	c0.7,0.7,1.5,1.5,2.2,2.2C132.9,105.9,132.2,105.1,131.4,104.4z"/>
</svg>
