<?xml version="1.0" encoding="utf-8"?>
<!-- Generator: Adobe Illustrator 22.0.1, SVG Export Plug-In . SVG Version: 6.00 Build 0)  -->
<svg version="1.1" xmlns="http://www.w3.org/2000/svg" xmlns:xlink="http://www.w3.org/1999/xlink" x="0px" y="0px"
	 viewBox="0 0 4037 3016.2" style="enable-background:new 0 0 4037 3016.2;" xml:space="preserve">
<style type="text/css">
	.st0{fill:none;stroke:#000000;stroke-miterlimit:10;}
</style>
<g id="Layer_1">
</g>
<g id="Layer_2">
	<path class="st0" d="M1443,1794.8c0.4,1.3,0.9,2.6,1.9,3.4c1.5,1.2,3.7,1.1,5.1,2.4c1.6,1.4,1.7,4.1,3.3,5.6c1.1,1,2.6,1.2,3.9,2
		c1.9,1.2,2.6,3.5,3.6,5.4c3.8,7.4,13.3,11.2,21.2,8.6c2.4,6.1,9.2,10.1,15.7,9.3c1.5-3.9,2.9-7.8,4.4-11.7
		c1.4,7.2,8.5,12.2,15.8,13.4c7.3,1.2,14.6-0.6,21.8-2.4c5.7-1.4,11.3-2.9,17-4.3c-0.9-2.1,1.8-3.7,3.7-4.8c2.3-1.2,4.4-3,6.2-4.9
		c2.3-2.6,4.1-5.8,4-9.3c-0.1-3.4-2.7-6.9-6.2-7.1c-0.8,2-2,3.8-3.5,5.3c0.8-11.5-0.5-23.1-3.8-34.1c2.3-0.8,4.6-1.6,6.9-2.4
		c-0.4-5.5,1.7-11.1,5.7-14.9c2.2-2.2,5-3.7,7.3-5.8c2.3-2.1,4.3-4.9,4.2-8c-0.1-3.1-3.1-6.2-6.1-5.4c4.7-6.5,0.4-15.5,1.1-23.5
		c0.3-4,2-8.1,0.8-12c-1.8-5.8-8.7-7.9-14.5-9.6c-4.9-1.5-9.7-3.4-14.2-5.9c-9.8-5.6-17.4-14.2-26.1-21.3
		c-8.7-7.1-19.6-13-30.7-11.6c1,2.5-2.6,4-5.1,5.1c-3.1,1.3-5.5,3.9-7.8,6.5c-5.4,6-10.8,12-16.2,18c-0.7,0.7-1.4,1.5-1.6,2.5
		c-0.7,2.6,2,4.8,3,7.3c1,2.4,0.3,5.2-0.5,7.7c-2.3,8.1-4.6,16.1-8.2,23.7c-2.5,5.3-5.7,10.3-8.2,15.6c-3.1,6.7-5.3,13.8-7.4,20.9
		c-1,3.5-2.1,7-1.8,10.6c0.2,2.2,0.9,4.4,1.2,6.6c0.4,2.2-0.2,4.1-0.1,6.2C1438.9,1786,1441.6,1790.9,1443,1794.8z"/>
</g>
</svg>
