<?xml version="1.0" encoding="utf-8"?>
<!-- Generator: Adobe Illustrator 22.0.1, SVG Export Plug-In . SVG Version: 6.00 Build 0)  -->
<svg version="1.1" xmlns="http://www.w3.org/2000/svg" xmlns:xlink="http://www.w3.org/1999/xlink" x="0px" y="0px"
	 viewBox="0 0 141.7 141.7" style="enable-background:new 0 0 141.7 141.7;" xml:space="preserve">
<style type="text/css">
	.st0{fill:none;}
</style>
<g id="Layer_1">
</g>
<g id="Layer_2">
	<path class="st0" d="M48.5,59.7c2.1,1.1,4.4,2.1,6.7,2.3c2.4,0.2,5-0.7,6.2-2.8c-2.2,0.4-4.4-0.4-6.7-0.9
		C52.6,57.9,49.9,58,48.5,59.7c1.3,0.5,2.5,0.9,3.8,1.4c-0.7-0.3-0.7-1.5-0.1-2.1c0.6-0.5,1.5-0.6,2.3-0.5c1.8,0.1,4,1.2,3.8,3
		c-1.5,0.2-3.1,0.1-4.6-0.3c-0.4-0.1-0.9-0.3-1-0.8c-0.1-0.7,0.8-1.1,1.5-1.1c1.3,0,2.9,0.5,2.9,1.8c-1.4,0.2-2.9-0.2-4-1
		c1.1-0.2,2.3,0.2,3.2,0.9c-3.1,1.8-7.2,1.8-10.3,0c1,1.2,1.6,2.8,1.5,4.4c-1.1-0.2-2.2-0.2-3.3,0c2,2.7,5.5,3.9,8.9,4.2
		c1.4,0.1,2.9,0,4.3-0.5c1.3-0.6,2.5-1.7,2.8-3.1c-4.4-0.5-8.8-0.7-13.1-0.5c4.4-0.4,8.9-0.2,13.3,0.4c3.2-2.4,4.7-7,3.5-10.8
		c-0.8-2.4-2.4-4.6-2.9-7.1c-0.1-0.8-0.2-1.6-0.5-2.3c-0.4-0.7-1-1.2-1.5-1.8c-0.8-1-1.2-2.4-1-3.7c2.3,0.3,4.7-0.1,6.7-1.2
		c1.5-0.8,3.2-1.9,4.7-1.1c0.9,0.5,1.4,1.6,2.3,2.1c2,1.1,5-1.2,6.4,0.6c0.7,0.8,0.5,2.1,0.1,3.1c0.1-1.3,0-3-1.2-3.5
		c-0.7-0.3-1.4-0.1-2.1-0.1c-1.9,0.2-3.9-0.6-5.2-2.1c5.1-0.7,10-2.4,14.2-5.3c0.8-0.5,1.6-1.3,1.3-2.2c-2.8,1.4-6,1.5-9.2,1.8
		s-6.4,0.9-8.7,3c-2.5-1.6-5.8-1-8.5-2c-2.1-0.7-4-2.3-6.2-1.9c0.5,1.9,2.2,3.2,4,3.9s3.7,1.1,5.5,1.8c1.3,0.6,3.1,1.3,4,0.2
		c0.2-0.2,0.3-0.4,0.5-0.6c0.8-0.9,2.6-0.5,2.8,0.7c-5.6-1.9-10.3-4.4-16-6c8.8-4.2,19.3-4.5,28.3-0.9c-9.2,3.4-19.4,3.8-28.8,1.1
		c2.6-1.3,4.1-4,6.5-5.5c1.7-1.1,3.7-1.6,5.7-1.8c6.2-0.7,13.1,1,16.6,6.1c1.2-2.3-0.3-5.5-2.8-6.1c-1.3-0.3-3.2-0.6-3-1.9
		c1.7-1,3.7-3.2,2.3-4.6c-0.6-0.6-1.6-0.7-2.5-0.7c-3.2,0-6.5,0.3-9.7,0.8c-2.2,0.4-5.3,0.2-5.5-2c-0.1-1.2,0.9-2.2,2-2.6
		c1.1-0.4,2.3-0.3,3.5-0.3c3.8,0,7.6-0.8,11-2.4c-6.4-3.8-14.9-1.3-20.3,3.7s-8.3,12.2-10.8,19.1c-1.2,3.2-2.3,6.4-3.1,9.7
		c-2.9,12.6,0.1,25.9,3.8,38.3c0.6,2.2,1.3,4.4,2.7,6.2c3,4,8.7,5,13.7,4.7c4.4-0.3,8.8-1.5,12.8-3.4c1.9-0.9,3.7-2,5.7-2.5
		c4.7-1.3,9.7,0.4,14.1,2.5c1.9-3.4,0.1-7.7,0.8-11.5c0.6-3.2,2.8-5.7,4.2-8.6c4.5-8.6,2.2-19.1-0.2-28.5c3.4,1.6,5.7,5,6.8,8.6
		c1.2,3.6,1.3,7.4,1.5,11.1c-0.5-1.1-1.3-2.1-2.4-2.7c0.2,0.6,0.2,1.2-0.1,1.8c-0.7-0.6-1.2-1.4-1.6-2.2c0,0.5-0.8,0.7-1.1,0.2
		c0.2,0.5,0.5,1.1,1,1.1c0.5,0.1,0.8-1,0.2-0.9c0.5,0.9,1.1,1.8,1.6,2.7c-0.2-0.8-0.1-1.6,0.4-2.2c3.8,1.6,5.3,6.2,5.7,10.3
		s0.2,8.5,2.2,12.1c1.5,2.7,4.2,5.1,4.2,8.2c-1.5-1.8-3.3-3.5-5.2-4.8c-0.5,1.7,0.9,3.2,2,4.5c2.8,3.3,4.5,7.5,4.8,11.8
		c-2.2,1.5-3.3,4.3-2.7,6.9c-1.1-0.6-2.1-1.2-3.3-1.7c-0.3,0.8-0.8,1.5-1.6,2c1.1,0.5,1.5,2.1,0.7,3.1c-0.8,1-2.4,1-3.2,0
		c-1,4.2-2.8,8.3-5.2,11.9c-0.4,0.6-0.8,1.2-1.5,1.5c-1.1,0.6-2.4,0.1-3.7,0.2c-1.3,0.1-2.3,0.9-3.4,1.6c-4.9,3.1-10.6,5.1-16.4,5.3
		c-2.3,0.1-4.7-0.1-7-0.2c-6.4-0.4-13-1-18.4-4.2c-1.2-0.7-2.8-1.5-3.7-0.4c-0.2,0.2-0.3,0.5-0.6,0.7c-0.3,0.2-0.7,0-1.1-0.2
		c-3.1-1.6-6.3-3.3-8.7-5.9c-1.2-1.3-2.2-2.9-3.6-4c-1.2-0.9-2.7-1.5-3.8-2.6c-0.9-1-1.4-2.3-1.9-3.6c-3.4-10-6.2-20.9-3.1-30.9
		c0.5-1.7,1.5-3.5,3.2-3.7c0.9-0.1,2.1,0.2,2.8-0.4c0.4-0.4,0.5-1,0.6-1.5c0.6-3.4,1.5-6.8,2.4-10.1c0.3-1.3,0.7-2.5,1-3.8
		c1.2-4.3,2.4-8.6,3.6-12.9c3.3-11.7,6.8-24,15.2-32.7c1.5-1.6,3.2-3.1,5.2-4c4.1-2,8.9-1.5,13.2,0c5.9,2,11.1,5.8,16,9.7
		c0.8,0.6,1.6,1.3,2.2,2.1c1,1.3,1.4,2.9,1.8,4.5c1.3,4.9,2.9,9.7,4.8,14.4c1.5,3.7,2.2,7.3,3,11.2c0.7,3.6,0.5,7.3-0.5,10.8
		c-0.3,1-0.7,2-1.4,2.7c-1.4,1.4-3.6,1.4-5.6,1.5c-3.7,0.4-7.2,1.8-10.9,2.5c-3.6,0.7-7.8,0.6-10.7-1.7c-0.1-1.3,0.9-2.7,2.2-3
		c1.2-0.3,2.4,0,3.6,0.3c4.1,0.8,8.3-0.5,12.5-0.2c1.1,0.1,2.5,0.9,2,1.9c-1.4,0.4-2.9,0.7-4.3,1.1c1.6,0.1,3.2-0.5,4.2-1.8
		c-0.9-0.6-2-1-3.2-1.1c-0.3-1.5,0.1-3.1,0.9-4.4c-4.9,3.3-12,3-16.6-0.7c0.5-0.4,0.8-1,0.8-1.6c1.6,2.3,4.8,2.9,7.7,2.7
		c2.6-0.2,5.2-0.8,7.5-1.8c-1.6,0-3.1,0.4-4.4,1.3c0.6-0.2,1.2-0.4,1.8-0.5c0.4-0.4,0.3-1.1-0.1-1.5c-0.4-0.4-1-0.5-1.5-0.6
		c-3.5-0.6-7.2-0.3-10.7,0.8c0.5,1.2,1.8,2.1,3.1,2.2c0.2-1.6,1.6-3,3.2-3s3.2,1.2,3.5,2.7c-1.8,0.1-3.6,0.1-5.4,0
		c0.2-0.9,1-1.7,1.9-1.8c0.9-0.1,1.9,0.4,2.3,1.2c-0.8,0.7-2.1,0.7-3,0.1c0.7-0.3,1.5-0.4,2.3-0.3c-1.2,0.4-2.5,0.5-3.6,0.1
		c1.2-1.3,3.4-1.5,4.9-0.5c-1.7,0.9-4,0.6-5.4-0.7c1.2-0.5,2.6-0.3,3.5,0.6c0.2,0.2,0.5,0.6,0.3,0.9c-0.1,0.3-0.5,0.3-0.8,0.3
		c-0.8,0.1-1.6,0.1-2.4,0.2c-0.2-1.1,0.6-2.3,1.7-2.5c1.1-0.2,2.3,0.7,2.5,1.8"/>
</g>
</svg>
